<svg width="16" height="16" viewBox="0 0 16 16" fill="none" xmlns="http://www.w3.org/2000/svg">
<g clip-path="url(#clip0_2079_87)">
<path d="M11.4656 3.36729C11.4352 3.19242 11.3336 3.03547 11.1842 2.93508C11.0347 2.8347 10.8533 2.80154 10.6776 2.838L4.1966 4.26802C3.84227 4.34547 3.62014 4.69574 3.69911 5.04781C3.77808 5.39987 4.12682 5.62427 4.47889 5.5453L9.36462 4.46984L4.19181 12.1709C3.98952 12.472 4.06906 12.8771 4.37022 13.0794C4.67138 13.2816 5.07641 13.2021 5.2787 12.9009L10.4515 5.1999L11.2998 10.1302C11.3622 10.4875 11.6995 10.724 12.0553 10.664C12.4111 10.6039 12.6491 10.2643 12.589 9.90851L11.4618 3.36804L11.4656 3.36729Z" fill="#232323"/>
</g>
<defs>
<clipPath id="clip0_2079_87">
<rect width="12" height="10.3125" fill="white" transform="translate(0 10.1443) scale(1.01836) rotate(-56.1107)"/>
</clipPath>
</defs>
</svg>
