<svg width="24" height="24" viewBox="0 0 24 24" fill="none" xmlns="http://www.w3.org/2000/svg">
<path d="M9.5 5.5V6.75H14.5V5.5C14.5 5.3625 14.3875 5.25 14.25 5.25H9.75C9.6125 5.25 9.5 5.3625 9.5 5.5ZM8 6.75V5.5C8 4.53438 8.78438 3.75 9.75 3.75H14.25C15.2156 3.75 16 4.53438 16 5.5V6.75H18C19.1031 6.75 20 7.64687 20 8.75V12.5V16.75C20 17.8531 19.1031 18.75 18 18.75H6C4.89688 18.75 4 17.8531 4 16.75V12.5V8.75C4 7.64687 4.89688 6.75 6 6.75H8ZM5.5 13.25V16.75C5.5 17.025 5.725 17.25 6 17.25H18C18.275 17.25 18.5 17.025 18.5 16.75V13.25H14V13.75C14 14.3031 13.5531 14.75 13 14.75H11C10.4469 14.75 10 14.3031 10 13.75V13.25H5.5ZM10 11.75H14H18.5V8.75C18.5 8.475 18.275 8.25 18 8.25H15.25H8.75H6C5.725 8.25 5.5 8.475 5.5 8.75V11.75H10Z" fill="#111111"/>
</svg>
