<svg width="24" height="24" viewBox="0 0 24 24" fill="none" xmlns="http://www.w3.org/2000/svg">
<g clip-path="url(#clip0_2081_578)">
<path d="M12 2.75C14.5859 2.75 17.0658 3.77723 18.8943 5.60571C20.7228 7.43419 21.75 9.91414 21.75 12.5C21.75 15.0859 20.7228 17.5658 18.8943 19.3943C17.0658 21.2228 14.5859 22.25 12 22.25C9.41414 22.25 6.93419 21.2228 5.10571 19.3943C3.27723 17.5658 2.25 15.0859 2.25 12.5C2.25 9.91414 3.27723 7.43419 5.10571 5.60571C6.93419 3.77723 9.41414 2.75 12 2.75ZM12 24.5C15.1826 24.5 18.2348 23.2357 20.4853 20.9853C22.7357 18.7348 24 15.6826 24 12.5C24 9.3174 22.7357 6.26516 20.4853 4.01472C18.2348 1.76428 15.1826 0.5 12 0.5C8.8174 0.5 5.76516 1.76428 3.51472 4.01472C1.26428 6.26516 0 9.3174 0 12.5C0 15.6826 1.26428 18.7348 3.51472 20.9853C5.76516 23.2357 8.8174 24.5 12 24.5ZM17.2969 10.2969C17.7375 9.85625 17.7375 9.14375 17.2969 8.70781C16.8563 8.27188 16.1438 8.26719 15.7078 8.70781L10.5047 13.9109L8.30156 11.7078C7.86094 11.2672 7.14844 11.2672 6.7125 11.7078C6.27656 12.1484 6.27187 12.8609 6.7125 13.2969L9.7125 16.2969C10.1531 16.7375 10.8656 16.7375 11.3016 16.2969L17.2969 10.2969Z" fill="black"/>
</g>
<defs>
<clipPath id="clip0_2081_578">
<rect width="24" height="24" fill="white"/>
</clipPath>
</defs>
</svg>
