<svg width="24" height="24" viewBox="0 0 24 24" fill="none" xmlns="http://www.w3.org/2000/svg">
<g clip-path="url(#clip0_2079_331)">
<path d="M6 7.5C5.725 7.5 5.5 7.725 5.5 8V8.69063L10.8906 13.1156C11.5375 13.6469 12.4656 13.6469 13.1125 13.1156L18.5 8.69063V8C18.5 7.725 18.275 7.5 18 7.5H6ZM5.5 10.6312V16C5.5 16.275 5.725 16.5 6 16.5H18C18.275 16.5 18.5 16.275 18.5 16V10.6312L14.0625 14.275C12.8625 15.2594 11.1344 15.2594 9.9375 14.275L5.5 10.6312ZM4 8C4 6.89688 4.89688 6 6 6H18C19.1031 6 20 6.89688 20 8V16C20 17.1031 19.1031 18 18 18H6C4.89688 18 4 17.1031 4 16V8Z" fill="#111111"/>
</g>
<defs>
<clipPath id="clip0_2079_331">
<rect width="16" height="16" fill="white" transform="translate(4 4)"/>
</clipPath>
</defs>
</svg>
