<svg width="21" height="24" viewBox="0 0 21 24" fill="none" xmlns="http://www.w3.org/2000/svg">
<g clip-path="url(#clip0_2079_442)">
<path d="M10.5043 6.60977C7.52305 6.60977 5.11836 9.01445 5.11836 11.9957C5.11836 14.977 7.52305 17.3816 10.5043 17.3816C13.4855 17.3816 15.8902 14.977 15.8902 11.9957C15.8902 9.01445 13.4855 6.60977 10.5043 6.60977ZM10.5043 15.4973C8.57773 15.4973 7.00273 13.927 7.00273 11.9957C7.00273 10.0645 8.57305 8.49414 10.5043 8.49414C12.4355 8.49414 14.0059 10.0645 14.0059 11.9957C14.0059 13.927 12.4309 15.4973 10.5043 15.4973ZM17.3668 6.38945C17.3668 7.08789 16.8043 7.6457 16.1105 7.6457C15.4121 7.6457 14.8543 7.0832 14.8543 6.38945C14.8543 5.6957 15.4168 5.1332 16.1105 5.1332C16.8043 5.1332 17.3668 5.6957 17.3668 6.38945ZM20.934 7.66445C20.8543 5.98164 20.4699 4.49102 19.2371 3.26289C18.009 2.03477 16.5184 1.65039 14.8355 1.56602C13.1012 1.46758 7.90273 1.46758 6.16836 1.56602C4.49023 1.6457 2.99961 2.03008 1.7668 3.2582C0.533984 4.48633 0.154297 5.97695 0.0699219 7.65977C-0.0285156 9.39414 -0.0285156 14.5926 0.0699219 16.327C0.149609 18.0098 0.533984 19.5004 1.7668 20.7285C2.99961 21.9566 4.48555 22.341 6.16836 22.4254C7.90273 22.5238 13.1012 22.5238 14.8355 22.4254C16.5184 22.3457 18.009 21.9613 19.2371 20.7285C20.4652 19.5004 20.8496 18.0098 20.934 16.327C21.0324 14.5926 21.0324 9.39883 20.934 7.66445ZM18.6934 18.1879C18.3277 19.1066 17.6199 19.8145 16.6965 20.1848C15.3137 20.7332 12.0324 20.6066 10.5043 20.6066C8.97617 20.6066 5.69023 20.7285 4.31211 20.1848C3.39336 19.8191 2.68555 19.1113 2.31523 18.1879C1.7668 16.8051 1.89336 13.5238 1.89336 11.9957C1.89336 10.4676 1.77148 7.18164 2.31523 5.80352C2.68086 4.88477 3.38867 4.17695 4.31211 3.80664C5.69492 3.2582 8.97617 3.38477 10.5043 3.38477C12.0324 3.38477 15.3184 3.26289 16.6965 3.80664C17.6152 4.17227 18.323 4.88008 18.6934 5.80352C19.2418 7.18633 19.1152 10.4676 19.1152 11.9957C19.1152 13.5238 19.2418 16.8098 18.6934 18.1879Z" fill="white"/>
</g>
<defs>
<clipPath id="clip0_2079_442">
<rect width="21" height="24" fill="white"/>
</clipPath>
</defs>
</svg>
