<svg width="27" height="24" viewBox="0 0 27 24" fill="none" xmlns="http://www.w3.org/2000/svg">
<path d="M16.8333 8.33333C16.8333 8.57222 16.7833 8.84167 16.6944 9.12778C16.5361 9.63889 16.2611 10.2056 15.9333 10.7722L15.9306 10.7778C15.8444 10.9278 15.7556 11.075 15.6639 11.2222C15.5417 11.4167 15.4167 11.6111 15.2889 11.8L15.2778 11.8167C14.775 12.5639 14.2583 13.2361 13.9111 13.6667C13.6972 13.9333 13.3 13.9333 13.0889 13.6667C12.7444 13.2361 12.225 12.5639 11.7222 11.8167C11.2111 11.0583 10.7139 10.2194 10.425 9.47222C10.4028 9.41389 10.3806 9.35556 10.3611 9.29722C10.2389 8.94722 10.1667 8.61944 10.1667 8.33611C10.1667 8.20556 10.175 8.07778 10.1889 7.95278C10.3778 6.28889 11.7889 5 13.5 5C15.3417 5 16.8333 6.49167 16.8333 8.33333ZM15.2778 13.35C15.6528 12.8444 16.0778 12.2417 16.4639 11.6167C16.5139 11.5361 16.5639 11.4556 16.6111 11.3722V17.6028L20.1667 16.3111V9.28611L17.1472 10.3833C17.2083 10.2528 17.2694 10.125 17.3222 9.99444C17.4861 9.60556 17.6278 9.18333 17.6889 8.76667L20.6056 7.70556C20.8111 7.63056 21.0389 7.66111 21.2167 7.78611C21.3944 7.91111 21.5 8.11389 21.5 8.33333V16.7778C21.5 17.0583 21.325 17.3083 21.0611 17.4056L16.1722 19.1833C16.025 19.2361 15.8639 19.2361 15.7167 19.1833L11.0556 17.4861L6.39444 19.1806C6.18889 19.2556 5.96111 19.225 5.78333 19.1C5.60556 18.975 5.5 18.7722 5.5 18.5556V10.1111C5.5 9.83056 5.675 9.58056 5.93889 9.48333L9.27778 8.26944C9.27778 8.29167 9.27778 8.31111 9.27778 8.33333C9.27778 8.75278 9.38056 9.18611 9.525 9.6L6.83333 10.5778V17.6028L10.3889 16.3111V11.375C10.4389 11.4583 10.4861 11.5389 10.5361 11.6194C10.9222 12.2444 11.3444 12.8472 11.7222 13.3528V16.3139L15.2778 17.6056V13.3528V13.35ZM13.5 9.22222C13.7947 9.22222 14.0773 9.10516 14.2857 8.89679C14.494 8.68841 14.6111 8.4058 14.6111 8.11111C14.6111 7.81643 14.494 7.53381 14.2857 7.32544C14.0773 7.11706 13.7947 7 13.5 7C13.2053 7 12.9227 7.11706 12.7143 7.32544C12.506 7.53381 12.3889 7.81643 12.3889 8.11111C12.3889 8.4058 12.506 8.68841 12.7143 8.89679C12.9227 9.10516 13.2053 9.22222 13.5 9.22222Z" fill="#111111"/>
</svg>
