<svg width="30" height="24" viewBox="0 0 30 24" fill="none" xmlns="http://www.w3.org/2000/svg">
<path d="M30 14.9016C30 19.1813 28.1531 21.8625 24.8297 21.8625C21.8953 21.8625 20.3391 20.2407 17.475 15.4594L16.0031 12.9938C15.6141 12.4079 15.3234 11.8594 15.0094 11.3532C14.0672 12.9375 12.8016 15.2438 12.8016 15.2438C9.66094 20.7094 7.89844 21.8625 5.44687 21.8625C2.03437 21.8625 0 19.1766 0 15.0235C0 8.32036 3.74062 1.98755 8.62031 1.98755C10.9734 1.98755 13.0172 3.14536 15.4078 6.18286C17.1469 3.83442 19.0687 1.98755 21.5297 1.98755C26.175 1.98755 30 7.87974 30 14.9016ZM13.4719 9.00942C11.4609 6.09849 10.1484 5.23599 8.57812 5.23599C5.67656 5.23599 3.24375 10.2094 3.24375 15.0797C3.24375 17.3532 4.11094 18.6282 5.56875 18.6282C6.98438 18.6282 7.86562 17.7375 10.4062 13.7625C10.4062 13.7625 11.5641 11.9297 13.4719 9.00942ZM24.9 18.6282C26.4094 18.6282 27.0984 17.3391 27.0984 15.1172C27.0984 9.29536 24.5531 4.55161 21.3234 4.55161C19.7672 4.55161 18.4594 5.76567 16.875 8.20786C17.3156 8.85474 17.7703 9.56724 18.2484 10.336L20.0062 13.261C22.7578 17.6719 23.4516 18.6282 24.9 18.6282Z" fill="white"/>
</svg>
