<svg width="24" height="24" viewBox="0 0 24 24" fill="none" xmlns="http://www.w3.org/2000/svg">
<path d="M15.7417 12.5982C15.2293 12.3794 14.6357 12.5232 14.2826 12.9543L13.2453 14.2229C11.808 13.3886 10.6082 12.1889 9.774 10.7516L11.0394 9.71741C11.4706 9.36434 11.6174 8.7707 11.3956 8.25829L9.89585 4.75889C9.66152 4.20899 9.071 3.90279 8.48672 4.02777L4.98733 4.77764C4.41243 4.89949 4 5.40878 4 5.9993C4 13.2231 9.47405 19.172 16.501 19.9188C16.8072 19.95 17.1134 19.975 17.4258 19.9875H17.4289C17.6195 19.9938 17.807 20 17.9976 20C18.5881 20 19.0974 19.5876 19.2192 19.0127L19.9691 15.5133C20.0941 14.929 19.7879 14.3385 19.238 14.1041L15.7386 12.6044L15.7417 12.5982ZM17.7945 18.4971C11.055 18.3878 5.6091 12.9418 5.50286 6.20239L8.60233 5.53688L9.94584 8.67384L8.82416 9.59243C8.25551 10.058 8.10866 10.8672 8.47735 11.5046C9.44281 13.1699 10.8301 14.5572 12.4954 15.5227C13.1328 15.8913 13.942 15.7445 14.4076 15.1758L15.3262 14.0542L18.4631 15.3977L17.7945 18.4971Z" fill="#111111"/>
</svg>
