<svg width="14" height="14" viewBox="0 0 14 14" fill="none" xmlns="http://www.w3.org/2000/svg">
<g clip-path="url(#clip0_2079_92)">
<path d="M6.99998 1.3125C8.50839 1.3125 9.95502 1.91171 11.0216 2.97832C12.0882 4.04493 12.6875 5.49156 12.6875 6.99998C12.6875 8.50839 12.0882 9.95502 11.0216 11.0216C9.95502 12.0882 8.50839 12.6875 6.99998 12.6875C5.49156 12.6875 4.04493 12.0882 2.97832 11.0216C1.91171 9.95502 1.3125 8.50839 1.3125 6.99998C1.3125 5.49156 1.91171 4.04493 2.97832 2.97832C4.04493 1.91171 5.49156 1.3125 6.99998 1.3125ZM6.99998 14C8.85649 14 10.637 13.2625 11.9497 11.9497C13.2625 10.637 14 8.85649 14 6.99998C14 5.14347 13.2625 3.363 11.9497 2.05025C10.637 0.737496 8.85649 0 6.99998 0C5.14347 0 3.363 0.737496 2.05025 2.05025C0.737496 3.363 0 5.14347 0 6.99998C0 8.85649 0.737496 10.637 2.05025 11.9497C3.363 13.2625 5.14347 14 6.99998 14ZM4.37499 4.15624V7.21873V9.84372C4.37499 10.2074 4.66756 10.5 5.03123 10.5C5.3949 10.5 5.68748 10.2074 5.68748 9.84372V7.87497H7.35271L8.36989 10.1144C8.52028 10.4453 8.90856 10.5902 9.23942 10.4398C9.57028 10.2894 9.7152 9.90114 9.56481 9.57028L8.63239 7.51951C9.22848 7.12849 9.62497 6.4531 9.62497 5.68748C9.62497 4.47889 8.64607 3.49999 7.43748 3.49999H5.03123C4.66756 3.49999 4.37499 3.79257 4.37499 4.15624ZM5.68748 6.56248V4.81248H7.43748C7.92146 4.81248 8.31247 5.2035 8.31247 5.68748C8.31247 6.17146 7.92146 6.56248 7.43748 6.56248H5.68748Z" fill="black"/>
</g>
<defs>
<clipPath id="clip0_2079_92">
<rect width="13.1765" height="13.1765" fill="white" transform="scale(1.0625)"/>
</clipPath>
</defs>
</svg>
