<svg width="21" height="24" viewBox="0 0 21 24" fill="none" xmlns="http://www.w3.org/2000/svg">
<path d="M13.2188 12.0094L8.75625 9.47344V14.5453L13.2188 12.0094ZM18 1.5H3C1.34531 1.5 0 2.84531 0 4.5V19.5C0 21.1547 1.34531 22.5 3 22.5H18C19.6547 22.5 21 21.1547 21 19.5V4.5C21 2.84531 19.6547 1.5 18 1.5ZM18.675 7.87969C19.0312 9.22031 19.0312 12.0141 19.0312 12.0141C19.0312 12.0141 19.0312 14.8078 18.675 16.1437C18.4781 16.8844 17.9016 17.4422 17.1656 17.6391C15.8391 18 10.5 18 10.5 18C10.5 18 5.16094 18 3.83438 17.6437C3.09844 17.4469 2.52187 16.8891 2.325 16.1484C1.96875 14.8078 1.96875 12.0141 1.96875 12.0141C1.96875 12.0141 1.96875 9.21563 2.325 7.87969C2.52187 7.13906 3.09844 6.55781 3.83438 6.36094C5.16094 6 10.5 6 10.5 6C10.5 6 15.8391 6 17.1656 6.36094C17.9016 6.55781 18.4781 7.13906 18.675 7.87969Z" fill="white"/>
</svg>
